<?xml version="1.0" encoding="UTF-8" standalone="no"?>
<svg
   xmlns:dc="http://purl.org/dc/elements/1.1/"
   xmlns:cc="http://creativecommons.org/ns#"
   xmlns:rdf="http://www.w3.org/1999/02/22-rdf-syntax-ns#"
   xmlns:svg="http://www.w3.org/2000/svg"
   xmlns="http://www.w3.org/2000/svg"
   xmlns:sodipodi="http://sodipodi.sourceforge.net/DTD/sodipodi-0.dtd"
   xmlns:inkscape="http://www.inkscape.org/namespaces/inkscape"
   inkscape:version="1.0beta1 (fe3e306, 2019-09-17)"
   sodipodi:docname="fp-rust.svg"
   id="svg62"
   version="1.1"
   width="144"
   height="144">
  <metadata
     id="metadata68">
    <rdf:RDF>
      <cc:Work
         rdf:about="">
        <dc:format>image/svg+xml</dc:format>
        <dc:type
           rdf:resource="http://purl.org/dc/dcmitype/StillImage" />
        <dc:title></dc:title>
      </cc:Work>
    </rdf:RDF>
  </metadata>
  <defs
     id="defs66" />
  <sodipodi:namedview
     inkscape:current-layer="svg62"
     inkscape:window-maximized="0"
     inkscape:window-y="148"
     inkscape:window-x="188"
     inkscape:cy="86.382436"
     inkscape:cx="46.904871"
     inkscape:zoom="4"
     inkscape:snap-text-baseline="false"
     showgrid="false"
     id="namedview64"
     inkscape:window-height="1410"
     inkscape:window-width="1272"
     inkscape:pageshadow="2"
     inkscape:pageopacity="0"
     guidetolerance="10"
     gridtolerance="10"
     objecttolerance="10"
     borderopacity="1"
     inkscape:document-rotation="0"
     bordercolor="#666666"
     pagecolor="#ffffff" />
  <g
     transform="matrix(1.3373214,0,0,1.3373214,-5.5225453,-36.594575)"
     style="fill:#000000;fill-opacity:1"
     id="g253">
    <path
       style="fill:#000000;fill-opacity:1"
       d="m 57.968525,33.933048 c -26.06,0 -47.27,21.22 -47.27,47.27 0,26.050002 21.22,47.270002 47.27,47.270002 26.05,0 47.269995,-21.22 47.269995,-47.270002 0,-26.05 -21.219995,-47.27 -47.269995,-47.27 z m -0.07,4.2 c 1.680761,0.04353 3.02056,1.423255 3.02,3.11 0,4.146665 -6.22,4.146665 -6.22,0 -7.34e-4,-1.753376 1.447359,-3.160741 3.2,-3.11 z m 7.12,5.12 c 11.050222,2.069744 20.631432,8.893613 26.2,18.66 l -3.67,8.28 c -0.63,1.43 0.02,3.11 1.44,3.75 l 7.06,3.13 c 0.219004,2.206835 0.491604,11.379528 -1.17,11.89 l -20.82049,6.396398 -15.12451,-40.026398 h -29.475 c 5.614011,-6.271594 13.13907,-10.5174 21.41,-12.08 l 4.79,5.02 c 1.08,1.13 2.87,1.18 4,0.09 z m -44.2,23.02 c 1.682359,0.04871 3.020705,1.426936 3.02,3.11 0,4.146665 -6.22,4.146665 -6.22,0 -7.34e-4,-1.753376 1.447359,-3.160741 3.2,-3.11 z m 74.15,0.14 c 1.682359,0.04871 3.020705,1.426936 3.02,3.11 0,4.146665 -6.22,4.146665 -6.22,0 -7.34e-4,-1.753376 1.447359,-3.160741 3.2,-3.11 z m -70.04,-3 28.52957,-0.261406 2.21792,6.561615 -16.07749,26.389791 -15.94,0.5 c -1.35112,-4.74456 -4.27218,-14.955598 -3.74,-19.86 l 6.7,-2.98 c 1.43,-0.64 2.08,-2.31 1.44,-3.74 z m 34.00575,16.305573 9.64834,25.448529 23.477357,-6.730547 c -1.456677,3.073567 -5.536087,7.965107 -6.811447,9.246447 l -6.57,-1.41 c -1.53,-0.33 -3.04,0.65 -3.37,2.18 l -1.56,7.28 c -10.151161,4.59844 -21.802519,4.54367 -31.91,-0.15 l -1.56,-7.28 c -0.33,-1.53 -1.83,-2.51 -3.36,-2.18 l -6.43,1.38 c -1.193214,-1.23083 -2.302379,-2.54045 -3.32,-3.92 l 17.62037,-0.66925 z m -24.06575,30.344429 c 1.682359,0.0487 3.020705,1.42694 3.02,3.11 0,4.14666 -6.22,4.14666 -6.22,0 -7.34e-4,-1.75338 1.447359,-3.16074 3.2,-3.11 z m 46.05,0.14 c 1.682359,0.0487 3.020705,1.42694 3.02,3.11 0,4.14666 -6.22,4.14666 -6.22,0 -7.34e-4,-1.75338 1.447359,-3.16074 3.2,-3.11 z"
       id="path58"
       inkscape:connector-curvature="0"
       sodipodi:nodetypes="ssssscccccccccscccccccsccssccscccccccccccccccccccccccsccssccs" />
    <path
       style="fill:#000000;fill-opacity:1"
       d="m 102.59852,81.203048 a 44.63,44.63 0 0 1 -44.629995,44.630002 44.63,44.63 0 0 1 -44.63,-44.630002 44.63,44.63 0 0 1 44.63,-44.63 44.63,44.63 0 0 1 44.629995,44.63 z m -0.84,-4.31 6.96,4.31 -6.96,4.31 5.98,5.59 -7.66,2.87 4.78,6.650002 -8.089995,1.32 3.399995,7.46 -8.189995,-0.29 1.88,7.98 -7.98,-1.88 0.29,8.19 -7.46,-3.4 -1.32,8.09 -6.65,-4.78 -2.87,7.66 -5.59,-5.98 -4.31,6.96 -4.31,-6.96 -5.59,5.98 -2.87,-7.66 -6.65,4.78 -1.32,-8.09 -7.46,3.4 0.29,-8.19 -7.98,1.88 1.88,-7.98 -8.19,0.29 3.4,-7.46 -8.09,-1.32 4.78,-6.650002 -7.6600005,-2.87 5.9800005,-5.59 -6.9600005,-4.31 6.9600005,-4.31 -5.9800005,-5.59 7.6600005,-2.87 -4.78,-6.65 8.09,-1.32 -3.4,-7.46 8.19,0.29 -1.88,-7.98 7.98,1.88 -0.29,-8.19 7.46,3.4 1.32,-8.09 6.65,4.78 2.87,-7.66 5.59,5.98 4.31,-6.96 4.31,6.96 5.59,-5.98 2.87,7.66 6.65,-4.78 1.32,8.09 7.46,-3.4 -0.29,8.19 7.98,-1.88 -1.88,7.98 8.189995,-0.29 -3.399995,7.46 8.089995,1.32 -4.78,6.65 7.66,2.87 z"
       fill-rule="evenodd"
       stroke="#000"
       stroke-linecap="round"
       stroke-linejoin="round"
       stroke-width="3"
       id="path60"
       inkscape:connector-curvature="0" />
  </g>
</svg>
